<svg width="38" height="38" viewBox="0 0 38 38" fill="none" xmlns="http://www.w3.org/2000/svg">
<path fill-rule="evenodd" clip-rule="evenodd" d="M25.6658 37.72V23.1129H30.5278L31.2552 17.421H25.6639V13.7867C25.6639 12.1383 26.1183 11.0142 28.4633 11.0142H31.4515V5.92204C30.0044 5.76523 28.5498 5.68967 27.0944 5.69572C22.786 5.69572 19.837 8.34932 19.837 13.2209V17.421H14.96V23.1129H19.8351V37.72H2.06448C0.92378 37.72 0 36.7883 0 35.6379V2.08214C0 0.931684 0.92378 0 2.06448 0H35.3355C36.4762 0 37.4 0.931684 37.4 2.08214V35.6379C37.4 36.7883 36.4762 37.72 35.3355 37.72H25.6658Z" fill="#780116"/>
</svg>
