<svg width="41" height="44" viewBox="0 0 41 44" fill="none" xmlns="http://www.w3.org/2000/svg">
<path d="M11.8691 0H29.0588C35.6073 0 40.9279 5.694 40.9279 12.702V31.098C40.9279 34.4668 39.6774 37.6976 37.4516 40.0797C35.2257 42.4618 32.2067 43.8 29.0588 43.8H11.8691C5.32063 43.8 0 38.106 0 31.098V12.702C0 9.33322 1.25049 6.10242 3.47638 3.72033C5.70227 1.33824 8.72122 0 11.8691 0ZM11.4598 4.38C9.50596 4.38 7.63213 5.21063 6.25055 6.68917C4.86896 8.16771 4.09279 10.173 4.09279 12.264V31.536C4.09279 35.8941 7.38749 39.42 11.4598 39.42H29.4681C31.422 39.42 33.2958 38.5894 34.6774 37.1108C36.059 35.6323 36.8351 33.627 36.8351 31.536V12.264C36.8351 7.9059 33.5404 4.38 29.4681 4.38H11.4598ZM31.2076 7.665C31.886 7.665 32.5366 7.95341 33.0163 8.46679C33.496 8.98018 33.7655 9.67647 33.7655 10.4025C33.7655 11.1285 33.496 11.8248 33.0163 12.3382C32.5366 12.8516 31.886 13.14 31.2076 13.14C30.5291 13.14 29.8785 12.8516 29.3988 12.3382C28.9191 11.8248 28.6496 11.1285 28.6496 10.4025C28.6496 9.67647 28.9191 8.98018 29.3988 8.46679C29.8785 7.95341 30.5291 7.665 31.2076 7.665ZM20.464 10.95C23.1777 10.95 25.7802 12.1037 27.6991 14.1572C29.6179 16.2107 30.696 18.9959 30.696 21.9C30.696 24.8041 29.6179 27.5893 27.6991 29.6428C25.7802 31.6963 23.1777 32.85 20.464 32.85C17.7503 32.85 15.1477 31.6963 13.2289 29.6428C11.31 27.5893 10.232 24.8041 10.232 21.9C10.232 18.9959 11.31 16.2107 13.2289 14.1572C15.1477 12.1037 17.7503 10.95 20.464 10.95ZM20.464 15.33C18.8358 15.33 17.2742 16.0222 16.1229 17.2543C14.9716 18.4864 14.3248 20.1575 14.3248 21.9C14.3248 23.6425 14.9716 25.3136 16.1229 26.5457C17.2742 27.7778 18.8358 28.47 20.464 28.47C22.0922 28.47 23.6537 27.7778 24.805 26.5457C25.9564 25.3136 26.6032 23.6425 26.6032 21.9C26.6032 20.1575 25.9564 18.4864 24.805 17.2543C23.6537 16.0222 22.0922 15.33 20.464 15.33Z" fill="#780116"/>
</svg>
