<svg width="40" height="44" viewBox="0 0 40 44" fill="none" xmlns="http://www.w3.org/2000/svg">
<path d="M31.2745 6.8432C29.5564 4.94925 28.6094 2.51742 28.6097 0H20.8413V30.0907C20.7826 31.7194 20.0708 33.2625 18.856 34.3944C17.6412 35.5262 16.0184 36.1583 14.33 36.1573C10.76 36.1573 7.7935 33.3424 7.7935 29.848C7.7935 25.6741 11.9668 22.5437 16.2658 23.8299V16.1616C7.59237 15.0453 0 21.5488 0 29.848C0 37.9288 6.93873 43.68 14.3048 43.68C22.1989 43.68 28.6097 37.492 28.6097 29.848V14.5843C31.7597 16.7679 35.5418 17.9395 39.42 17.9331V10.4347C39.42 10.4347 34.6936 10.6531 31.2745 6.8432Z" fill="#780116"/>
</svg>
