<svg width="45" height="32" viewBox="0 0 45 32" fill="none" xmlns="http://www.w3.org/2000/svg">
<path d="M17.788 22.6929L29.328 15.885L17.788 9.07714V22.6929ZM43.4917 4.92435C43.7807 5.99091 43.9808 7.42056 44.1142 9.23599C44.2699 11.0514 44.3366 12.6172 44.3366 13.9788L44.47 15.885C44.47 20.8547 44.1142 24.5083 43.4917 26.8456C42.9358 28.888 41.6462 30.2042 39.645 30.7715C38.6 31.0665 36.6878 31.2708 33.7527 31.4069C30.8622 31.5658 28.2162 31.6338 25.7704 31.6338L22.235 31.77C12.9185 31.77 7.1152 31.4069 4.825 30.7715C2.82385 30.2042 1.53422 28.888 0.97834 26.8456C0.689285 25.7791 0.48917 24.3494 0.35576 22.534C0.200115 20.7186 0.13341 19.1528 0.13341 17.7912L0 15.885C0 10.9153 0.35576 7.26171 0.97834 4.92435C1.53422 2.88199 2.82385 1.56581 4.825 0.998486C5.87004 0.703479 7.78225 0.499243 10.7173 0.363085C13.6078 0.204235 16.2538 0.136157 18.6996 0.136157L22.235 0C31.5515 0 37.3548 0.363086 39.645 0.998486C41.6462 1.56581 42.9358 2.88199 43.4917 4.92435Z" fill="#780116"/>
</svg>
